<?xml version="1.0" standalone="no"?>
<!DOCTYPE svg PUBLIC "-//W3C//DTD SVG 20010904//EN"
 "http://www.w3.org/TR/2001/REC-SVG-20010904/DTD/svg10.dtd">
<svg version="1.0" xmlns="http://www.w3.org/2000/svg"
 width="100.000000pt" height="100.000000pt" viewBox="0 0 100.000000 100.000000"
 preserveAspectRatio="xMidYMid meet">
<metadata>
Created by potrace 1.15, written by Peter Selinger 2001-2017
</metadata>
<g transform="translate(0.000000,100.000000) scale(0.100000,-0.100000)"
fill="#000000" stroke="none">
<path d="M290 996 c0 -2 -7 -64 -16 -138 -8 -73 -16 -182 -17 -243 -2 -156 13
-185 147 -288 l36 -28 0 -83 c0 -55 -4 -87 -12 -93 -7 -5 -44 -18 -81 -28 -71
-18 -106 -48 -93 -80 8 -23 484 -23 492 0 13 32 -22 62 -93 80 -37 10 -74 23
-80 28 -9 6 -13 38 -13 93 l0 83 36 28 c134 103 149 132 147 288 -1 61 -9 170
-17 243 -9 74 -16 136 -16 138 0 2 -94 4 -210 4 -116 0 -210 -2 -210 -4z m194
-86 l18 -51 -41 -49 c-22 -27 -41 -52 -41 -57 0 -5 22 -26 49 -46 77 -59 76
-55 36 -141 -19 -42 -35 -82 -35 -89 0 -7 28 30 61 81 l61 94 -52 53 -52 52
48 41 48 41 -17 54 c-9 29 -17 57 -17 60 0 4 24 7 54 7 48 0 54 -3 59 -22 11
-46 29 -236 30 -328 2 -121 -14 -158 -97 -216 -32 -22 -64 -51 -72 -65 -8 -15
-13 -59 -14 -120 0 -116 9 -132 90 -153 55 -15 54 -15 -100 -15 -154 0 -155 0
-100 15 81 21 90 37 90 153 -1 61 -6 105 -14 120 -8 14 -40 43 -72 65 -83 58
-99 95 -97 216 1 92 19 282 30 328 5 20 11 22 67 22 l62 0 18 -50z"/>
</g>
</svg>
