<?xml version="1.0" standalone="no"?>
<!DOCTYPE svg PUBLIC "-//W3C//DTD SVG 20010904//EN"
 "http://www.w3.org/TR/2001/REC-SVG-20010904/DTD/svg10.dtd">
<svg version="1.0" xmlns="http://www.w3.org/2000/svg"
 width="498.000000pt" height="980.000000pt" viewBox="0 0 498.000000 980.000000"
 preserveAspectRatio="xMidYMid meet">
<metadata>
Created by potrace 1.15, written by Peter Selinger 2001-2017
</metadata>
<g transform="translate(0.000000,980.000000) scale(0.100000,-0.100000)"
fill="#000000" stroke="none">
<path d="M1741 9785 c-111 -31 -204 -91 -298 -189 -164 -172 -180 -229 -190
-696 l-6 -306 54 -47 c29 -26 68 -54 85 -62 40 -19 117 -19 152 -1 42 22 89
76 112 129 14 31 30 51 46 58 32 12 315 12 347 0 15 -6 35 -32 56 -75 41 -85
87 -118 170 -124 68 -5 92 6 169 73 l52 47 0 166 c-1 243 -17 518 -35 586 -25
94 -63 154 -160 251 -93 94 -160 137 -272 176 -78 27 -212 34 -282 14z m246
-432 c48 -22 71 -77 97 -230 l6 -33 -221 0 -220 0 5 33 c26 157 35 185 73 219
41 38 189 44 260 11z"/>
<path d="M398 8203 c-60 -62 -68 -80 -68 -148 0 -74 18 -114 74 -161 25 -21
46 -41 46 -45 0 -4 -65 -108 -144 -231 -79 -122 -175 -277 -212 -342 l-69
-120 -7 -480 c-10 -746 -9 -4914 2 -5257 10 -330 20 -420 51 -486 27 -55 106
-134 210 -207 219 -155 292 -226 397 -386 94 -143 195 -245 284 -289 61 -30
75 -33 219 -41 202 -12 2411 -12 2603 0 137 8 154 11 212 40 80 39 208 158
253 236 93 160 195 265 386 399 55 39 134 104 176 145 85 84 122 151 140 252
9 45 13 897 16 3044 l4 2981 -59 109 c-64 119 -164 282 -304 497 l-91 137 46
49 c31 33 51 66 61 102 28 94 22 115 -57 197 l-51 52 -2036 0 -2036 0 -46 -47z
m2004 -363 l657 0 334 -407 334 -406 7 -926 6 -926 50 -46 c78 -74 174 -87
265 -36 55 31 65 68 75 277 11 221 11 1071 1 1465 -8 298 -8 300 -35 353 -32
62 -165 240 -352 469 -74 91 -134 169 -134 173 0 14 116 21 274 18 l149 -3
263 -414 264 -414 0 -2889 0 -2888 -2070 0 -2070 0 0 403 0 404 227 6 c124 4
654 7 1177 7 l952 0 57 58 56 57 3 2135 3 2135 -22 41 c-12 23 -44 60 -70 83
l-48 41 -1167 0 -1168 0 0 214 0 213 231 354 c127 195 247 378 266 408 l35 54
396 -6 c219 -4 693 -7 1054 -7z m88 -3500 l0 -1860 -1025 0 -1025 0 0 1860 0
1860 1025 0 1025 0 0 -1860z m1620 -3534 c0 -2 -38 -54 -83 -115 -46 -61 -106
-149 -133 -196 l-49 -85 -1366 0 -1365 0 -23 48 c-31 63 -116 193 -176 267
-26 33 -52 66 -58 73 -7 9 318 12 1622 12 897 0 1631 -2 1631 -4z"/>
</g>
</svg>
