<?xml version="1.0" standalone="no"?>
<!DOCTYPE svg PUBLIC "-//W3C//DTD SVG 20010904//EN"
 "http://www.w3.org/TR/2001/REC-SVG-20010904/DTD/svg10.dtd">
<svg version="1.0" xmlns="http://www.w3.org/2000/svg"
 width="64.000000pt" height="64.000000pt" viewBox="0 0 64.000000 64.000000"
 preserveAspectRatio="xMidYMid meet">
<metadata>
Created by potrace 1.15, written by Peter Selinger 2001-2017
</metadata>
<g transform="translate(0.000000,64.000000) scale(0.100000,-0.100000)"
fill="#000000" stroke="none">
<path d="M426 599 c-23 -18 -26 -28 -27 -82 l0 -62 -14 44 c-26 83 -81 114
-163 91 -48 -12 -51 -24 -23 -85 27 -60 44 -70 120 -70 54 0 66 -3 69 -17 3
-15 -1 -15 -27 -5 -40 15 -52 1 -21 -23 l25 -19 -24 -18 c-13 -10 -33 -27 -44
-37 -15 -15 -43 -21 -116 -27 -152 -13 -141 -5 -141 -109 0 -49 5 -92 10 -95
6 -4 34 -1 63 5 52 12 54 12 135 -29 47 -24 95 -41 114 -41 20 1 80 25 153 63
l120 62 0 40 c0 36 -3 40 -27 43 -16 2 -28 8 -28 13 0 5 -8 17 -17 27 -10 10
-23 27 -29 37 -6 10 -19 23 -30 29 -10 6 -23 17 -27 24 -4 6 -22 12 -40 12
-27 0 -30 2 -17 15 13 12 21 12 53 1 21 -7 49 -11 63 -8 28 5 74 56 74 82 0
21 -48 43 -90 42 -27 -1 -28 1 -18 23 6 13 8 39 4 59 -6 29 -11 36 -30 36 -13
0 -35 -9 -50 -21z m28 -274 c3 -8 15 -15 26 -15 12 0 24 -9 29 -23 5 -13 16
-29 25 -36 25 -21 20 -27 -31 -39 -39 -8 -51 -8 -64 4 -8 8 -30 14 -47 14 -17
0 -47 8 -67 17 l-35 17 22 23 c12 13 27 23 35 23 7 0 13 5 13 11 0 6 9 9 20 6
11 -3 23 -1 26 4 9 14 41 10 48 -6z m-166 -95 c35 -17 77 -30 92 -30 37 0 49
-19 24 -37 -18 -14 -46 -13 -116 3 -21 5 -28 3 -28 -8 0 -16 60 -38 104 -38
30 0 86 26 86 39 0 11 147 47 156 38 4 -3 4 -13 1 -20 -7 -18 -218 -127 -246
-127 -12 0 -58 18 -103 41 -55 28 -90 39 -110 37 -15 -3 -28 -1 -28 4 0 4 -9
8 -21 8 -15 0 -19 -4 -15 -16 4 -10 1 -14 -6 -12 -9 3 -13 26 -13 69 l0 64 40
6 c86 13 119 9 183 -21z"/>
</g>
</svg>
