<?xml version="1.0" standalone="no"?>
<!DOCTYPE svg PUBLIC "-//W3C//DTD SVG 20010904//EN"
 "http://www.w3.org/TR/2001/REC-SVG-20010904/DTD/svg10.dtd">
<svg version="1.0" xmlns="http://www.w3.org/2000/svg"
 width="100.000000pt" height="100.000000pt" viewBox="0 0 100.000000 100.000000"
 preserveAspectRatio="xMidYMid meet">
<metadata>
Created by potrace 1.15, written by Peter Selinger 2001-2017
</metadata>
<g transform="translate(0.000000,100.000000) scale(0.100000,-0.100000)"
fill="#000000" stroke="none">
<path d="M74 566 c-50 -50 -50 -122 0 -172 30 -30 40 -34 86 -34 46 0 56 4 86
34 30 30 34 40 34 86 0 46 -4 56 -34 86 -30 30 -40 34 -86 34 -46 0 -56 -4
-86 -34z m136 -36 c43 -43 11 -120 -50 -120 -38 0 -70 32 -70 70 0 38 32 70
70 70 17 0 39 -9 50 -20z"/>
<path d="M414 566 c-30 -30 -34 -40 -34 -86 0 -46 4 -56 34 -86 30 -30 40 -34
86 -34 46 0 56 4 86 34 30 30 34 40 34 86 0 46 -4 56 -34 86 -30 30 -40 34
-86 34 -46 0 -56 -4 -86 -34z m136 -36 c11 -11 20 -33 20 -50 0 -17 -9 -39
-20 -50 -43 -43 -120 -11 -120 50 0 17 9 39 20 50 11 11 33 20 50 20 17 0 39
-9 50 -20z"/>
<path d="M754 566 c-30 -30 -34 -40 -34 -86 0 -46 4 -56 34 -86 30 -30 40 -34
86 -34 46 0 56 4 86 34 30 30 34 40 34 86 0 46 -4 56 -34 86 -30 30 -40 34
-86 34 -46 0 -56 -4 -86 -34z m136 -36 c43 -43 11 -120 -50 -120 -38 0 -70 32
-70 70 0 38 32 70 70 70 17 0 39 -9 50 -20z"/>
</g>
</svg>
