<?xml version="1.0" standalone="no"?>
<!DOCTYPE svg PUBLIC "-//W3C//DTD SVG 20010904//EN"
 "http://www.w3.org/TR/2001/REC-SVG-20010904/DTD/svg10.dtd">
<svg version="1.0" xmlns="http://www.w3.org/2000/svg"
 width="247.000000pt" height="204.000000pt" viewBox="0 0 247.000000 204.000000"
 preserveAspectRatio="xMidYMid meet">
<metadata>
Created by potrace 1.15, written by Peter Selinger 2001-2017
</metadata>
<g transform="translate(0.000000,204.000000) scale(0.100000,-0.100000)"
fill="#000000" stroke="none">
<path d="M1301 2023 c-19 -17 -211 -469 -211 -499 0 -7 -17 -18 -37 -23 -107
-28 -107 -28 -138 -10 -16 9 -216 99 -442 199 -437 192 -436 191 -463 140 -14
-26 -14 -27 157 -268 l143 -203 0 -402 c0 -221 4 -407 8 -414 7 -11 790 -496
856 -530 28 -14 43 -9 495 162 279 107 473 185 484 197 16 19 17 53 17 417 l0
396 145 245 c80 135 148 253 151 263 16 50 7 53 -577 204 -305 78 -557 142
-560 143 -4 0 -16 -8 -28 -17z m548 -231 c254 -66 464 -121 467 -125 3 -3 -53
-106 -125 -227 l-131 -222 0 -384 c0 -359 -1 -384 -18 -393 -10 -5 -201 -80
-425 -165 l-407 -155 -395 241 -395 242 0 396 0 396 -95 134 c-52 74 -93 136
-91 137 2 2 142 -58 312 -132 l309 -137 75 -100 c94 -126 98 -133 73 -120 -57
30 -422 192 -433 192 -36 0 -62 -55 -42 -88 5 -7 145 -75 313 -152 l304 -139
3 -352 c1 -240 6 -357 13 -366 15 -18 64 -16 83 3 14 13 16 63 16 389 l0 373
63 14 c34 8 207 46 385 84 177 38 322 71 322 74 0 3 -185 77 -410 164 -239 93
-409 164 -407 170 87 219 152 366 162 366 7 0 220 -53 474 -118z"/>
</g>
</svg>
