<svg height="480pt" viewBox="-48 0 480 480.00043" width="480pt" xmlns="http://www.w3.org/2000/svg"><path d="m360 0h-42.328125c-11.765625-.0703125-21.824219 8.460938-23.671875 20.082031l-19.769531 109.167969c-.613281 3.886719-3.964844 6.75-7.902344 6.75h-2.328125c-4.417969 0-8-3.582031-8-8v-16c0-13.253906-10.746094-24-24-24h-80c-13.253906 0-24 10.746094-24 24v16c0 4.417969-3.582031 8-8 8h-2.328125c-4.007813.003906-7.398437-2.957031-7.9375-6.925781l-19.703125-108.800781c-1.785156-11.699219-11.871094-20.320313-23.703125-20.273438h-42.328125c-13.253906 0-24 10.746094-24 24v432c0 13.253906 10.746094 24 24 24h48c7.550781-.015625 14.65625-3.570312 19.199219-9.597656l14.402343-19.203125c1.507813-2.011719 3.878907-3.199219 6.398438-3.199219h160c2.519531 0 4.890625 1.1875 6.398438 3.199219l14.402343 19.203125c4.546875 6.027344 11.648438 9.578125 19.199219 9.597656h48c13.253906 0 24-10.746094 24-24v-432c0-13.253906-10.746094-24-24-24zm8 456c0 4.417969-3.582031 8-8 8h-48c-2.519531 0-4.890625-1.183594-6.398438-3.199219l-14.402343-19.199219c-4.542969-6.027343-11.648438-9.582031-19.199219-9.601562h-160c-7.550781.019531-14.65625 3.570312-19.199219 9.601562l-14.402343 19.199219c-1.507813 2.015625-3.878907 3.199219-6.398438 3.199219h-48c-4.417969 0-8-3.582031-8-8v-432c0-4.417969 3.582031-8 8-8h42.328125c4.007813-.003906 7.398437 2.957031 7.9375 6.929688l19.703125 108.796874c1.789062 11.699219 11.871094 20.324219 23.703125 20.273438h2.328125c13.253906 0 24-10.746094 24-24v-16c0-4.417969 3.582031-8 8-8h80c4.417969 0 8 3.582031 8 8v16c0 13.253906 10.746094 24 24 24h2.328125c11.765625.070312 21.824219-8.457031 23.671875-20.078125l19.769531-109.167969c.613281-3.890625 3.964844-6.753906 7.902344-6.753906h42.328125c4.417969 0 8 3.582031 8 8zm0 0"/><path d="m344 32h-12.960938c-3.867187 0-7.183593 2.769531-7.871093 6.578125l-17.296875 95.476563 15.746094 2.851562 14.382812-79.410156v158.503906h16v-176c0-4.417969-3.582031-8-8-8zm0 0"/><path d="m48 57.472656 14.503906 80.128906 15.746094-2.847656-17.410156-96.175781c-.6875-3.808594-4.003906-6.578125-7.871094-6.578125h-12.96875c-4.417969 0-8 3.582031-8 8v176h16zm0 0"/><path d="m67.199219 422.402344-7.199219 9.597656h-12v-40h-16v48c0 4.417969 3.582031 8 8 8h24c2.519531 0 4.890625-1.183594 6.398438-3.199219l9.601562-12.800781c7.574219-10.046875 19.417969-15.96875 32-16v-16c-17.617188.046875-34.195312 8.335938-44.800781 22.402344zm0 0"/><path d="m336 432h-12l-7.199219-9.597656c-10.609375-14.066406-27.183593-22.355469-44.800781-22.402344v16c12.582031.035156 24.421875 5.957031 32 16l9.601562 12.800781c1.507813 2.015625 3.878907 3.199219 6.398438 3.199219h24c4.417969 0 8-3.582031 8-8v-48h-16zm0 0"/><path d="m160 120h64v16h-64zm0 0"/></svg>