<?xml version="1.0" standalone="no"?>
<!DOCTYPE svg PUBLIC "-//W3C//DTD SVG 20010904//EN"
 "http://www.w3.org/TR/2001/REC-SVG-20010904/DTD/svg10.dtd">
<svg version="1.0" xmlns="http://www.w3.org/2000/svg"
 width="225.000000pt" height="225.000000pt" viewBox="0 0 225.000000 225.000000"
 preserveAspectRatio="xMidYMid meet">
<metadata>
Created by potrace 1.15, written by Peter Selinger 2001-2017
</metadata>
<g transform="translate(0.000000,225.000000) scale(0.100000,-0.100000)"
fill="#000000" stroke="none">
<path d="M862 2238 c-8 -8 -12 -59 -12 -165 0 -142 1 -154 20 -165 16 -11 20
-24 20 -74 l0 -61 -110 -102 c-61 -57 -117 -116 -125 -132 -9 -16 -18 -57 -22
-91 -3 -35 -12 -69 -20 -76 -20 -21 -19 -325 2 -346 19 -18 19 -35 0 -60 -23
-30 -21 -312 1 -345 16 -22 16 -25 0 -51 -21 -37 -24 -314 -2 -345 7 -11 16
-44 19 -73 8 -67 32 -109 77 -133 32 -18 63 -19 415 -19 352 0 383 1 415 19
45 24 69 66 77 133 3 29 12 62 19 73 21 29 20 314 -1 341 -19 25 -19 42 0 60
22 22 22 311 0 340 -18 24 -19 51 -2 56 19 7 23 330 4 349 -8 8 -17 43 -21 79
-4 35 -14 76 -21 91 -8 15 -64 73 -125 130 l-110 102 0 61 c0 50 4 63 20 74
19 11 20 23 20 165 0 106 -4 157 -12 165 -17 17 -509 17 -526 0z m478 -163 l0
-115 -215 0 c-207 0 -215 1 -215 20 0 19 8 20 178 22 l177 3 0 25 0 25 -177 3
-178 2 0 65 0 65 215 0 215 0 0 -115z m-40 -248 l0 -74 124 -121 c113 -111
125 -126 131 -166 9 -60 4 -79 -25 -86 -16 -4 -25 -13 -25 -25 0 -16 9 -21 40
-25 l40 -5 3 -122 3 -123 -34 0 c-57 0 -79 -54 -25 -62 35 -5 36 -36 1 -40
-18 -2 -29 -10 -31 -22 -5 -24 14 -36 56 -36 l33 0 -3 -122 -3 -123 -40 -5
c-32 -4 -41 -9 -43 -28 -3 -18 2 -23 27 -28 38 -8 41 -32 4 -36 -22 -2 -28 -8
-28 -28 0 -22 5 -25 43 -28 l42 -3 0 -124 0 -124 -42 -3 c-38 -3 -43 -6 -43
-28 0 -20 6 -26 29 -28 28 -4 28 -4 23 -55 -3 -39 -11 -56 -31 -74 l-27 -23
-374 0 -374 0 -27 23 c-21 18 -28 35 -32 75 l-5 52 359 2 359 3 0 25 0 25
-372 3 -373 2 0 125 0 125 373 2 372 3 0 25 0 25 -357 3 c-309 2 -358 4 -358
17 0 13 47 15 348 15 191 0 353 4 360 9 8 5 12 17 10 27 -3 18 -21 19 -373 24
l-370 5 -3 123 -3 122 363 0 c200 0 369 4 376 9 8 5 12 17 10 27 -3 18 -20 19
-361 22 -334 2 -358 3 -355 20 3 16 30 17 356 20 303 2 354 4 358 17 4 9 1 22
-6 30 -11 13 -66 15 -377 15 l-364 0 3 123 3 122 370 5 c362 5 370 5 370 25 0
20 -8 20 -355 25 -400 6 -369 -2 -355 87 6 41 17 55 117 151 l110 107 141 5
142 5 0 25 0 25 -127 3 -128 3 0 54 0 55 175 0 175 0 0 -73z"/>
</g>
</svg>
