<?xml version="1.0" standalone="no"?>
<!DOCTYPE svg PUBLIC "-//W3C//DTD SVG 20010904//EN"
 "http://www.w3.org/TR/2001/REC-SVG-20010904/DTD/svg10.dtd">
<svg version="1.0" xmlns="http://www.w3.org/2000/svg"
 width="200.000000pt" height="200.000000pt" viewBox="0 0 200.000000 200.000000"
 preserveAspectRatio="xMidYMid meet">
<metadata>
Created by potrace 1.15, written by Peter Selinger 2001-2017
</metadata>
<g transform="translate(0.000000,200.000000) scale(0.100000,-0.100000)"
fill="#000000" stroke="none">
<path d="M663 1420 l-323 -221 0 -150 c0 -139 1 -149 19 -149 10 0 156 94 324
210 169 116 311 210 317 210 7 0 149 -94 317 -210 169 -116 314 -210 325 -210
17 0 18 11 18 149 l0 150 -317 217 c-174 120 -326 219 -337 221 -15 3 -119
-63 -343 -217z m652 -47 l304 -208 1 -99 0 -98 -26 17 c-14 9 -150 102 -301
206 -152 104 -283 189 -293 189 -9 0 -151 -92 -316 -205 l-299 -206 -3 97 c-2
72 1 100 10 105 7 4 144 98 303 208 160 110 296 200 303 201 8 0 150 -93 317
-207z"/>
<path d="M1120 1423 c1 -12 61 -59 185 -143 184 -126 215 -143 215 -118 -1 11
-360 266 -391 276 -5 2 -9 -5 -9 -15z"/>
<path d="M663 880 l-323 -221 0 -150 c0 -139 1 -149 19 -149 10 0 156 94 324
210 169 116 311 210 317 210 7 0 149 -94 317 -210 169 -116 314 -210 325 -210
17 0 18 11 18 149 l0 150 -317 217 c-174 120 -326 219 -337 221 -15 3 -119
-63 -343 -217z m652 -47 l304 -208 1 -99 0 -98 -26 17 c-14 9 -150 102 -301
206 -152 104 -283 189 -293 189 -9 0 -151 -92 -316 -205 l-299 -206 -3 97 c-2
72 1 100 10 105 7 4 144 98 303 208 160 110 296 200 303 201 8 0 150 -93 317
-207z"/>
<path d="M1120 883 c1 -12 61 -59 185 -143 184 -126 215 -143 215 -118 -1 11
-360 266 -391 276 -5 2 -9 -5 -9 -15z"/>
</g>
</svg>
